<svg width="19" height="23" viewBox="0 0 19 23" fill="none" xmlns="http://www.w3.org/2000/svg">
<path d="M3.64557 9.10254V14.54C3.64557 14.915 3.52057 15.2275 3.27057 15.4775C3.02057 15.7275 2.70807 15.8525 2.33307 15.8525C1.95807 15.8525 1.62994 15.7275 1.34869 15.4775C1.06744 15.2275 0.926819 14.915 0.926819 14.54V9.10254C0.926819 8.75879 1.06744 8.46191 1.34869 8.21191C1.62994 7.96191 1.94244 7.83691 2.28619 7.83691C2.66119 7.83691 2.97369 7.96191 3.22369 8.21191C3.50494 8.46191 3.64557 8.75879 3.64557 9.10254ZM4.11432 16.4619C4.11432 16.8682 4.25494 17.2119 4.53619 17.4932C4.81744 17.7432 5.14557 17.8682 5.52057 17.8682H6.45807V20.7275C6.45807 21.29 6.67682 21.665 7.11432 21.8525C7.55182 22.0713 7.97369 22.0713 8.37994 21.8525C8.81744 21.6338 9.03619 21.2588 9.03619 20.7275V17.8682H10.8174V20.7275C10.8174 21.29 11.0206 21.665 11.4268 21.8525C11.8643 22.0713 12.3018 22.0713 12.7393 21.8525C13.1768 21.665 13.3956 21.29 13.3956 20.7275V17.8682H14.3331C14.7081 17.8682 15.0362 17.7432 15.3174 17.4932C15.5987 17.2119 15.7393 16.8682 15.7393 16.4619V8.07129H4.11432V16.4619ZM15.7393 7.60254H4.06744C4.06744 6.63379 4.33307 5.74316 4.86432 4.93066C5.42682 4.08691 6.16119 3.43066 7.06744 2.96191L6.17682 1.32129C6.11432 1.19629 6.12994 1.11816 6.22369 1.08691C6.34869 1.02441 6.42682 1.04004 6.45807 1.13379L7.39557 2.77441C8.20807 2.43066 9.05182 2.25879 9.92682 2.25879C10.8331 2.25879 11.6768 2.43066 12.4581 2.77441L13.3956 1.13379C13.4268 1.04004 13.4893 1.02441 13.5831 1.08691C13.7081 1.11816 13.7393 1.19629 13.6768 1.32129L12.7862 2.96191C13.6924 3.43066 14.4112 4.08691 14.9424 4.93066C15.4737 5.74316 15.7393 6.63379 15.7393 7.60254ZM7.77057 5.02441C7.77057 4.89941 7.72369 4.79004 7.62994 4.69629C7.53619 4.57129 7.41119 4.50879 7.25494 4.50879C7.12994 4.50879 7.02057 4.57129 6.92682 4.69629C6.83307 4.79004 6.78619 4.89941 6.78619 5.02441C6.78619 5.14941 6.83307 5.25879 6.92682 5.35254C7.02057 5.44629 7.12994 5.49316 7.25494 5.49316C7.41119 5.49316 7.53619 5.44629 7.62994 5.35254C7.72369 5.25879 7.77057 5.14941 7.77057 5.02441ZM13.0674 5.02441C13.0674 4.89941 13.0206 4.79004 12.9268 4.69629C12.8331 4.57129 12.7237 4.50879 12.5987 4.50879C12.4737 4.50879 12.3487 4.57129 12.2237 4.69629C12.1299 4.79004 12.0831 4.89941 12.0831 5.02441C12.0831 5.14941 12.1299 5.25879 12.2237 5.35254C12.3487 5.44629 12.4737 5.49316 12.5987 5.49316C12.7237 5.49316 12.8331 5.44629 12.9268 5.35254C13.0206 5.25879 13.0674 5.14941 13.0674 5.02441ZM17.5206 7.83691C17.1768 7.83691 16.8643 7.96191 16.5831 8.21191C16.3331 8.46191 16.2081 8.77441 16.2081 9.14941V14.54C16.2081 14.915 16.3331 15.2275 16.5831 15.4775C16.8643 15.7275 17.1768 15.8525 17.5206 15.8525C17.8956 15.8525 18.2237 15.7275 18.5049 15.4775C18.7862 15.2275 18.9268 14.915 18.9268 14.54V9.10254C18.9268 8.75879 18.7862 8.46191 18.5049 8.21191C18.2237 7.96191 17.8956 7.83691 17.5206 7.83691Z" fill="white"/>
</svg>
