<svg width="1440" height="1219" viewBox="0 0 1440 1219" fill="none" xmlns="http://www.w3.org/2000/svg">
<path d="M-38.0013 304.172C-116.41 387.569 -45.3737 651.831 -17.0543 720.554C46.4483 875.468 -59.4249 857.441 -62.3864 998.058C-65.3479 1138.68 221.818 1216.62 487.178 1137.76C807.191 1042.66 687.064 993.38 1121.09 1008.76C1555.12 1024.13 1600.57 639.195 1573.12 593.768C1549.86 555.273 1600.47 388.877 1531.93 361.54C1499.63 348.658 1499.93 239.04 1388.86 262.227C1267.4 287.581 1163.79 108.289 1039.16 198.281C914.537 288.272 908.119 80.2029 730.135 139.749C552.151 199.294 347.244 131.617 244.927 185.54C48.8699 288.866 59.1873 200.801 -38.0013 304.172Z" fill="url(#paint0_linear_5955_37)"/>
<path d="M935.745 114.574C935.745 114.574 909.623 112.998 912.675 131.35C912.675 131.35 912.063 134.592 914.998 136.065C914.998 136.065 915.047 134.689 917.686 135.164C918.624 135.322 919.577 135.368 920.526 135.301C921.808 135.216 923.027 134.714 923.997 133.869C923.997 133.869 931.353 130.827 934.213 118.794C934.213 118.794 936.323 116.171 936.24 115.496L931.827 117.383C931.827 117.383 933.333 120.57 932.15 123.22C932.15 123.22 932.006 117.5 931.16 117.63C930.988 117.63 928.864 118.739 928.864 118.739C928.864 118.739 931.463 124.294 929.504 128.328C929.504 128.328 930.246 121.485 928.053 119.138L924.946 120.983C924.946 120.983 927.977 126.717 925.922 131.398C925.922 131.398 926.451 124.218 924.293 121.423L921.481 123.626C921.481 123.626 924.327 129.278 922.595 133.16C922.595 133.16 922.361 124.803 920.869 124.17C920.869 124.17 918.408 126.345 918.03 127.24C918.03 127.24 919.982 131.371 918.773 133.512C918.773 133.512 918.03 127.942 917.398 127.915C917.398 127.915 914.943 131.605 914.689 134.11C914.812 131.774 915.542 129.51 916.806 127.543C915.39 127.812 914.083 128.489 913.046 129.491C913.046 129.491 913.431 126.882 917.411 126.655C917.411 126.655 919.474 123.853 919.982 123.681C919.982 123.681 916.023 123.351 913.624 124.418C913.624 124.418 915.734 121.96 920.704 123.076L923.454 120.804C923.454 120.804 918.236 120.115 916.03 120.88C916.03 120.88 918.573 118.704 924.203 120.288L927.228 118.477C927.228 118.477 922.78 117.52 920.134 117.864C920.134 117.864 922.932 116.357 928.115 117.988L930.28 117.018C930.28 117.018 927.022 116.378 926.066 116.274C925.111 116.171 925.063 115.909 925.063 115.909C927.126 115.566 929.245 115.804 931.181 116.598C931.181 116.598 935.828 114.863 935.745 114.574Z" fill="#6C63FF"/>
<circle cx="1336.93" cy="225.041" r="6.5" fill="#FECB42"/>
<circle cx="980.927" cy="166.04" r="34.5" fill="#E8F5FF"/>
<defs>
<linearGradient id="paint0_linear_5955_37" x1="-80.4527" y1="345.598" x2="1861.85" y2="852.308" gradientUnits="userSpaceOnUse">
<stop stop-color="#0470DC"/>
<stop offset="1" stop-color="#70DDFF"/>
</linearGradient>
</defs>
</svg>
