<svg width="1440" height="734" viewBox="0 0 1440 734" fill="none" xmlns="http://www.w3.org/2000/svg">
<path d="M176 78.1355C106 67.3355 29.5 137.969 0 174.636L-8 733.54H1495V209.136C1422 234.136 1441 120.636 1291 28.1356C1141 -64.3644 1034 99.6356 915 168.636C796 237.636 693.5 54.1356 608 50.6356C522.5 47.1356 499 128.136 405 174.636C311 221.135 263.5 91.6355 176 78.1355Z" fill="white"/>
<g clip-path="url(#clip0_5963_38)">
<path d="M230.051 432.623C236.696 425.407 241.632 416.922 244.526 407.74C247.42 398.559 248.204 388.895 246.826 379.401C245.448 369.907 241.94 360.804 236.539 352.707C231.137 344.61 223.968 337.708 215.515 332.465C219.886 326.038 222.203 318.548 222.186 310.898C222.186 289.269 204.129 271.733 181.809 271.733C172.997 271.791 164.445 274.574 157.45 279.661C150.455 284.748 145.399 291.862 143.048 299.923C137.796 291.375 130.282 284.278 121.252 279.333C112.221 274.389 101.986 271.769 91.5603 271.733C58.3549 271.733 31.432 297.792 31.432 330.105C31.4268 336.975 32.6725 343.794 35.1143 350.262C33.8869 350.17 32.6756 350.078 31.432 350.078C4.76749 350.078 -16.8419 371.048 -16.8419 396.922C-16.8419 398.455 -16.745 400.095 -16.5835 401.659C-27.4331 406.277 -36.6356 413.787 -43.0724 423.276C-49.5092 432.765 -52.903 443.824 -52.8413 455.11C-52.8413 487.3 -25.9992 513.359 7.09317 513.359C10.5751 513.357 14.05 513.064 17.4779 512.485C17.3003 514.416 17.1872 516.378 17.1872 518.356C17.1872 554.409 47.3079 583.641 84.4379 583.641C98.1985 583.634 111.612 579.539 122.795 571.929C131.786 579.423 143.341 583.558 155.306 583.564C183.069 583.564 205.551 561.736 205.551 534.788C205.551 533.623 205.454 532.474 205.373 531.339H205.551C235.267 531.339 259.364 507.948 259.364 479.115C259.409 469.565 256.702 460.185 251.535 451.991C246.369 443.796 238.939 437.098 230.051 432.623Z" fill="url(#paint0_linear_5963_38)"/>
<path d="M120.647 363.292H112.782V726.917H120.647V363.292Z" fill="#DCE7FF"/>
<path d="M176.558 404.332L112.068 470.431L117.839 475.503L182.329 409.404L176.558 404.332Z" fill="#DCE7FF"/>
<path d="M50.4289 479.688L45.7394 485.681L112.605 532.813L117.294 526.82L50.4289 479.688Z" fill="#DCE7FF"/>
<path d="M145.406 505.794C135.305 495.595 129.675 482.129 129.659 468.132C129.716 458.475 132.408 448.998 137.475 440.624C142.542 432.25 149.81 425.265 158.569 420.352C154.64 414.943 152.533 408.529 152.528 401.958C152.528 383.564 168.84 368.542 188.98 368.542C196.753 368.47 204.345 370.767 210.64 375.097C216.934 379.426 221.598 385.559 223.946 392.592C228.913 385.175 235.785 379.078 243.915 374.871C252.045 370.664 261.167 368.486 270.427 368.542C300.419 368.542 324.741 390.83 324.741 418.329C324.755 424.205 323.639 430.033 321.446 435.528C322.545 435.451 323.643 435.375 324.773 435.375C348.838 435.375 368.38 453.263 368.38 475.336C368.378 476.688 368.302 478.039 368.154 479.383C377.745 483.071 385.968 489.378 391.781 497.504C397.594 505.63 400.736 515.21 400.81 525.032C400.81 552.455 376.584 574.666 346.674 574.666C343.534 574.665 340.401 574.414 337.306 573.915C337.468 575.57 337.565 577.241 337.565 578.927C337.565 609.692 310.383 634.632 276.839 634.632C264.542 634.638 252.521 631.17 242.309 624.668C234.034 631.115 223.653 634.627 212.947 634.601C187.882 634.601 167.565 615.961 167.565 592.984C167.565 591.987 167.661 591.006 167.726 590.041H167.565C140.739 590.041 118.984 570.113 118.984 545.48C119.047 537.184 121.556 529.07 126.225 522.057C130.895 515.043 137.539 509.41 145.406 505.794Z" fill="url(#paint1_linear_5963_38)"/>
<path d="M253.243 447.53H243.423V757.077H253.243V447.53Z" fill="#DCE7FF"/>
<path d="M194.598 480.608L187.586 487.132L245.823 543.517L252.835 536.992L194.598 480.608Z" fill="#DCE7FF"/>
<path d="M306.896 544.663L246.521 584.877L252.161 592.506L312.537 552.292L306.896 544.663Z" fill="#DCE7FF"/>
<path d="M349.516 424.836H343.621V445.346H349.516V424.836Z" fill="#70DDFF"/>
<path d="M349.516 419.241H294.507V424.836H349.516V419.241Z" fill="#70DDFF"/>
<path d="M345.139 479.835C356.173 479.835 365.117 471.346 365.117 460.874C365.117 450.401 356.173 441.912 345.139 441.912C334.106 441.912 325.161 450.401 325.161 460.874C325.161 471.346 334.106 479.835 345.139 479.835Z" fill="url(#paint2_linear_5963_38)"/>
<path d="M345.139 475.282C355.308 475.282 363.551 467.459 363.551 457.808C363.551 448.157 355.308 440.333 345.139 440.333C334.971 440.333 326.728 448.157 326.728 457.808C326.728 467.459 334.971 475.282 345.139 475.282Z" fill="#FFEB3B"/>
<path d="M300.402 365.162H294.507V643.009H300.402V365.162Z" fill="#70DDFF"/>
<path d="M297.011 368.473C305.11 368.473 311.675 362.241 311.675 354.554C311.675 346.867 305.11 340.636 297.011 340.636C288.912 340.636 282.346 346.867 282.346 354.554C282.346 362.241 288.912 368.473 297.011 368.473Z" fill="#4F79A4"/>
<path d="M373.096 439.751H318.087V445.346H373.096V439.751Z" fill="#70DDFF"/>
<path d="M296.672 723.208C286.351 723.208 277.921 725.554 277.921 715.759V644.557C277.934 639.839 279.913 635.318 283.426 631.981C286.939 628.644 291.701 626.761 296.672 626.745C301.642 626.761 306.404 628.644 309.917 631.981C313.43 635.318 315.41 639.839 315.422 644.557V715.759C315.422 725.554 306.992 723.208 296.672 723.208Z" fill="#70DDFF"/>
<path d="M1287.84 424.836H1281.95V445.346H1287.84V424.836Z" fill="#70DDFF"/>
<path d="M1336.96 419.241H1281.95V424.836H1336.96V419.241Z" fill="#70DDFF"/>
<path d="M1286.31 479.835C1297.34 479.835 1306.29 471.346 1306.29 460.874C1306.29 450.401 1297.34 441.912 1286.31 441.912C1275.28 441.912 1266.33 450.401 1266.33 460.874C1266.33 471.346 1275.28 479.835 1286.31 479.835Z" fill="url(#paint3_linear_5963_38)"/>
<path d="M1286.31 475.282C1296.48 475.282 1304.72 467.459 1304.72 457.808C1304.72 448.157 1296.48 440.333 1286.31 440.333C1276.14 440.333 1267.9 448.157 1267.9 457.808C1267.9 467.459 1276.14 475.282 1286.31 475.282Z" fill="#FFEB3B"/>
<path d="M1336.96 365.162H1331.06V643.009H1336.96V365.162Z" fill="#70DDFF"/>
<path d="M1334.45 368.473C1342.55 368.473 1349.12 362.241 1349.12 354.554C1349.12 346.867 1342.55 340.636 1334.45 340.636C1326.36 340.636 1319.79 346.867 1319.79 354.554C1319.79 362.241 1326.36 368.473 1334.45 368.473Z" fill="#4F79A4"/>
<path d="M1313.38 439.751H1258.37V445.346H1313.38V439.751Z" fill="#70DDFF"/>
<path d="M1334.78 723.208C1345.1 723.208 1353.53 725.554 1353.53 715.759V644.557C1353.52 639.839 1351.54 635.318 1348.02 631.981C1344.51 628.644 1339.75 626.761 1334.78 626.745C1329.81 626.761 1325.04 628.644 1321.53 631.981C1318.02 635.318 1316.04 639.839 1316.03 644.557V715.759C1316.03 725.554 1324.39 723.208 1334.78 723.208Z" fill="#70DDFF"/>
<g opacity="0.1">
<path opacity="0.1" d="M674.722 560.448C674.722 560.448 674.722 560.28 674.722 560.203C674.8 560.263 674.865 560.336 674.916 560.418C675.101 560.808 675.189 561.232 675.175 561.659C675.168 561.71 675.168 561.762 675.175 561.813C674.942 561.386 674.789 560.924 674.722 560.448Z" fill="black"/>
</g>
<path d="M1028.34 715.191C1028.64 715.191 1028.89 714.958 1028.89 714.67C1028.89 714.382 1028.64 714.149 1028.34 714.149C1028.03 714.149 1027.79 714.382 1027.79 714.67C1027.79 714.958 1028.03 715.191 1028.34 715.191Z" fill="#E8F5FF"/>
<path d="M1023.7 710.255C1024.01 710.255 1024.25 710.022 1024.25 709.734C1024.25 709.446 1024.01 709.213 1023.7 709.213C1023.4 709.213 1023.15 709.446 1023.15 709.734C1023.15 710.022 1023.4 710.255 1023.7 710.255Z" fill="#E8F5FF"/>
<path d="M1021.99 712.6C1022.29 712.6 1022.54 712.367 1022.54 712.079C1022.54 711.791 1022.29 711.558 1021.99 711.558C1021.69 711.558 1021.44 711.791 1021.44 712.079C1021.44 712.367 1021.69 712.6 1021.99 712.6Z" fill="#E8F5FF"/>
<path d="M1020.07 714.455C1020.37 714.455 1020.62 714.222 1020.62 713.934C1020.62 713.646 1020.37 713.413 1020.07 713.413C1019.77 713.413 1019.52 713.646 1019.52 713.934C1019.52 714.222 1019.77 714.455 1020.07 714.455Z" fill="#E8F5FF"/>
<path d="M1025.51 716.003C1025.81 716.003 1026.06 715.77 1026.06 715.482C1026.06 715.194 1025.81 714.961 1025.51 714.961C1025.21 714.961 1024.96 715.194 1024.96 715.482C1024.96 715.77 1025.21 716.003 1025.51 716.003Z" fill="#E8F5FF"/>
<path opacity="0.1" d="M1167.26 716.556C1167.26 716.556 1167.26 716.556 1167.39 716.724C1167.52 716.893 1167.28 716.586 1167.26 716.556Z" fill="black"/>
</g>
<circle cx="197.5" cy="126.04" r="6.5" fill="#FFEB3B"/>
<circle cx="1110.5" cy="200.04" r="6.5" fill="#DCE7FF"/>
<circle cx="1208.5" cy="163.04" r="3.5" fill="#6C63FF"/>
<circle cx="1071" cy="166.54" r="13" fill="#70DDFF"/>
<defs>
<linearGradient id="paint0_linear_5963_38" x1="20.5" y1="305.54" x2="124.5" y2="575.54" gradientUnits="userSpaceOnUse">
<stop stop-color="#0470DC"/>
<stop offset="1" stop-color="#70DDFF"/>
</linearGradient>
<linearGradient id="paint1_linear_5963_38" x1="216" y1="444.569" x2="333" y2="715.569" gradientUnits="userSpaceOnUse">
<stop stop-color="#0470DC"/>
<stop offset="1" stop-color="#6BD7FD"/>
<stop offset="1" stop-color="#70DDFF"/>
</linearGradient>
<linearGradient id="paint2_linear_5963_38" x1="10422.5" y1="5842.53" x2="10422.5" y2="4903.94" gradientUnits="userSpaceOnUse">
<stop stop-color="#808080" stop-opacity="0.25"/>
<stop offset="0.54" stop-color="#808080" stop-opacity="0.12"/>
<stop offset="1" stop-color="#808080" stop-opacity="0.1"/>
</linearGradient>
<linearGradient id="paint3_linear_5963_38" x1="-20578" y1="14467" x2="-20578" y2="13528.4" gradientUnits="userSpaceOnUse">
<stop stop-color="#808080" stop-opacity="0.25"/>
<stop offset="0.54" stop-color="#808080" stop-opacity="0.12"/>
<stop offset="1" stop-color="#808080" stop-opacity="0.1"/>
</linearGradient>
<clipPath id="clip0_5963_38">
<rect width="1444" height="653" fill="white" transform="translate(-63 261.54)"/>
</clipPath>
</defs>
</svg>
