<svg width="1275" height="1758" viewBox="0 0 1275 1758" fill="none" xmlns="http://www.w3.org/2000/svg">
<path d="M79.2532 1C79.4198 41.6188 94.7531 129.615 154.753 156.648C229.753 190.44 283.253 190.952 359.253 189.928C420.053 189.109 738.42 186.159 883.253 186.5C921.753 186.591 988.8 200.227 1034.75 241.5C1088.75 290 1089.91 335.203 1092.25 375.5C1094.25 409.906 1092.25 586.186 1092.25 642C1092.25 769 1012.25 851 863.753 852L293.753 858.93C165.753 858.93 82.7532 910.916 76.2532 1042.5V1353C70.7532 1462 155.753 1537.67 245.253 1537.67C351.753 1537.67 416.753 1539.37 450.753 1537.67C521.753 1537.67 585.753 1587 589.753 1669.5C589.753 1674.01 589.753 1696.23 589.753 1757.5" stroke="url(#paint0_linear_5948_36)" stroke-width="150"/>
<path d="M79.2532 1C79.4198 41.6188 94.7531 129.615 154.753 156.648C229.753 190.44 283.253 190.952 359.253 189.928C420.053 189.109 738.42 186.159 883.253 186.5C921.753 186.591 988.8 200.227 1034.75 241.5C1088.75 290 1089.91 335.203 1092.25 375.5C1094.25 409.906 1092.25 586.186 1092.25 642C1092.25 769 1012.25 851 863.753 852L293.753 858.93C165.753 858.93 82.7532 910.916 76.2532 1042.5V1353C70.7532 1462 155.753 1537.67 245.253 1537.67C351.753 1537.67 416.753 1539.37 450.753 1537.67C521.753 1537.67 585.753 1587 589.753 1669.5C589.753 1674.01 589.753 1677.23 589.753 1738.5" stroke="url(#paint1_linear_5948_36)" stroke-width="2" stroke-dasharray="10 15"/>
<path d="M204.493 131.734C206.547 127.96 204.219 123.337 201.563 119.968C198.907 116.598 195.662 113.119 195.73 108.811C195.833 102.646 202.371 99.0096 207.594 95.7427C211.471 93.318 215.047 90.4419 218.246 87.1745C219.589 85.9197 220.697 84.4354 221.519 82.7912C222.6 80.3803 222.573 77.6407 222.504 74.9969C222.276 66.2028 221.84 57.4177 221.197 48.6418" stroke="#3F3D56" stroke-width="4" stroke-miterlimit="10"/>
<path d="M231.13 48.1555C231.057 46.5455 230.58 44.9798 229.743 43.6031C228.905 42.2265 227.734 41.0832 226.338 40.2791L224.188 44.5392L224.257 39.3887C222.308 38.8161 220.228 38.8775 218.317 39.564C216.406 40.2506 214.762 41.5269 213.622 43.2087C212.483 44.8906 211.907 46.891 211.977 48.9216C212.048 50.9521 212.761 52.9078 214.015 54.5064C215.268 56.1051 216.996 57.2641 218.951 57.8163C220.905 58.3685 222.985 58.2854 224.889 57.5788C226.793 56.8723 228.423 55.5789 229.545 53.8852C230.667 52.1915 231.222 50.1852 231.13 48.1555Z" fill="#57B894"/>
<path d="M214.015 113.221C213.008 115.176 211.359 116.724 209.346 117.607C207.333 118.49 205.078 118.654 202.958 118.071C200.839 117.488 198.984 116.194 197.704 114.406C196.425 112.618 195.799 110.444 195.931 108.249C196.063 106.054 196.945 103.971 198.43 102.349C199.914 100.727 201.911 99.6653 204.085 99.341C206.259 99.0168 208.478 99.45 210.371 100.568C212.264 101.686 213.715 103.421 214.481 105.482L208.477 110.365L215.083 108.831C215.085 110.359 214.719 111.865 214.015 113.221Z" fill="#57B894"/>
<path d="M209.223 94.5577C207.962 94.6194 206.701 94.4311 205.513 94.0037C204.325 93.5764 203.233 92.9183 202.299 92.0674C201.366 91.2165 200.61 90.1895 200.075 89.0454C199.54 87.9013 199.236 86.6626 199.18 85.4005C199.105 83.8966 199.389 82.3962 200.009 81.024C200.584 79.7392 201.434 78.5963 202.498 77.6757C203.563 76.755 204.816 76.0791 206.17 75.6954L206.122 79.6611L208.292 75.353C209.553 75.2913 210.814 75.4796 212.003 75.907C213.191 76.3343 214.283 76.9924 215.216 77.8433C216.149 78.6942 216.905 79.7212 217.441 80.8654C217.976 82.0095 218.28 83.2482 218.335 84.5102C218.391 85.6194 218.252 86.7298 217.924 87.7909C217.346 89.6774 216.201 91.3396 214.643 92.5506C213.086 93.7616 211.193 94.4626 209.223 94.5577Z" fill="#57B894"/>
<path d="M232.575 79.0311C231.1 79.0853 229.633 78.7981 228.287 78.1917C226.941 77.5854 225.754 76.6763 224.817 75.5354C223.88 74.3945 223.219 73.0526 222.886 71.6142C222.553 70.1758 222.556 68.6799 222.896 67.243C223.235 65.8061 223.902 64.467 224.843 63.3302C225.785 62.1934 226.977 61.2895 228.325 60.689C229.673 60.0886 231.142 59.8077 232.616 59.8683C234.091 59.929 235.532 60.3295 236.826 61.0386L235.128 65.696L238.62 62.3399C240.031 63.6176 241.031 65.2869 241.49 67.135C241.95 68.983 241.849 70.9261 241.2 72.7166C240.552 74.5071 239.385 76.0639 237.849 77.1884C236.313 78.313 234.477 78.9545 232.575 79.0311Z" fill="#57B894"/>
<path opacity="0.1" d="M229.836 50.7171C227.625 50.9636 225.462 51.6554 223.237 51.7924C221.012 51.9294 218.568 51.3952 217.165 49.6623C216.405 48.7309 216.021 47.5528 215.385 46.5392C214.777 45.5928 213.948 44.8098 212.968 44.2584C212.383 45.4711 212.06 46.7935 212.02 48.1394C211.98 49.4852 212.224 50.8245 212.736 52.0699C213.247 53.3153 214.015 54.4389 214.99 55.3676C215.964 56.2963 217.123 57.0093 218.391 57.4601C219.66 57.9109 221.008 58.0895 222.35 57.9841C223.692 57.8788 224.996 57.4919 226.179 56.8487C227.361 56.2055 228.395 55.3203 229.213 54.2509C230.03 53.1815 230.614 51.9517 230.925 50.6418C230.562 50.6554 230.199 50.6828 229.836 50.7171Z" fill="black"/>
<path opacity="0.1" d="M232.575 79.0308C230.922 79.103 229.278 78.7475 227.802 77.9988C226.326 77.25 225.068 76.1333 224.15 74.7565C223.231 73.3796 222.683 71.789 222.558 70.1383C222.432 68.4876 222.735 66.8325 223.435 65.3328C224.202 65.8459 224.86 66.5044 225.373 67.271C226.057 68.3052 226.468 69.497 227.276 70.449C228.768 72.2092 231.329 72.7845 233.643 72.6749C235.957 72.5653 238.202 71.9147 240.489 71.7024C240.81 71.7024 241.139 71.6475 241.461 71.6407C240.985 73.6719 239.86 75.4925 238.256 76.8262C236.652 78.1598 234.658 78.9339 232.575 79.0308Z" fill="black"/>
<path opacity="0.1" d="M209.223 94.5577C207.962 94.6194 206.701 94.4311 205.513 94.0037C204.325 93.5764 203.233 92.9183 202.299 92.0674C201.366 91.2165 200.61 90.1895 200.075 89.0454C199.54 87.9013 199.236 86.6626 199.18 85.4006C199.105 83.8966 199.389 82.3962 200.009 81.024C200.807 81.5429 201.504 82.2046 202.062 82.976C202.809 84.0307 203.274 85.243 204.116 86.2156C205.739 88.0237 208.463 88.6607 210.921 88.599C213.379 88.5374 215.59 87.9621 217.952 87.784C217.373 89.6761 216.224 91.3428 214.661 92.5555C213.098 93.7682 211.199 94.4676 209.223 94.5577Z" fill="black"/>
<path opacity="0.1" d="M214.015 113.221C213.501 114.372 212.765 115.409 211.849 116.275C210.934 117.141 209.857 117.818 208.68 118.267C207.503 118.716 206.249 118.929 204.989 118.894C203.73 118.858 202.49 118.575 201.34 118.06C200.19 117.545 199.153 116.809 198.288 115.893C197.423 114.977 196.746 113.899 196.297 112.722C195.848 111.544 195.635 110.29 195.67 109.03C195.706 107.77 195.989 106.53 196.504 105.379C197.294 105.899 198.004 106.531 198.612 107.256C199.523 108.372 200.125 109.633 201.179 110.68C203.144 112.612 206.314 113.42 209.141 113.482C210.77 113.488 212.397 113.401 214.015 113.221Z" fill="black"/>
<path d="M190 127.392C190 127.392 197.585 127.159 199.872 125.529C202.158 123.899 211.51 121.954 212.105 124.57C212.701 127.187 223.497 137.583 214.94 137.624C206.382 137.666 195.045 136.289 192.766 134.885C190.486 133.481 190 127.392 190 127.392Z" fill="#656380"/>
<path opacity="0.2" d="M215.09 136.713C206.526 136.782 195.196 135.378 192.916 133.974C191.177 132.919 190.486 129.118 190.253 127.365H190C190 127.365 190.479 133.481 192.738 134.898C194.998 136.316 206.348 137.693 214.912 137.638C217.384 137.638 218.233 136.741 218.191 135.433C217.87 136.207 216.932 136.7 215.09 136.713Z" fill="black"/>
<path d="M1242.6 780.602C1244.38 777.322 1242.36 773.304 1240.05 770.375C1237.74 767.446 1234.92 764.422 1234.98 760.677C1235.07 755.32 1240.75 752.159 1245.29 749.319C1248.66 747.212 1251.77 744.712 1254.55 741.872C1255.72 740.781 1256.68 739.491 1257.39 738.062C1258.34 735.967 1258.31 733.585 1258.25 731.288C1258.05 723.644 1257.67 716.008 1257.12 708.381" stroke="#3F3D56" stroke-width="4" stroke-miterlimit="10"/>
<path d="M1265.75 707.958C1265.69 706.558 1265.27 705.197 1264.54 704.001C1263.82 702.804 1262.8 701.811 1261.58 701.112L1259.72 704.814L1259.78 700.338C1258.08 699.84 1256.27 699.893 1254.61 700.49C1252.95 701.087 1251.52 702.196 1250.53 703.658C1249.54 705.12 1249.04 706.859 1249.1 708.624C1249.16 710.388 1249.78 712.088 1250.87 713.478C1251.96 714.867 1253.46 715.875 1255.16 716.355C1256.86 716.835 1258.67 716.762 1260.32 716.148C1261.98 715.534 1263.4 714.41 1264.37 712.938C1265.35 711.466 1265.83 709.722 1265.75 707.958Z" fill="#57B894"/>
<path d="M1250.87 764.511C1250 766.209 1248.56 767.555 1246.81 768.322C1245.07 769.09 1243.1 769.232 1241.26 768.726C1239.42 768.219 1237.81 767.094 1236.7 765.54C1235.58 763.986 1235.04 762.097 1235.16 760.189C1235.27 758.281 1236.04 756.47 1237.33 755.061C1238.62 753.651 1240.35 752.728 1242.24 752.446C1244.13 752.164 1246.06 752.541 1247.71 753.513C1249.35 754.485 1250.61 755.992 1251.28 757.784L1246.06 762.028L1251.8 760.695C1251.8 762.023 1251.48 763.332 1250.87 764.511Z" fill="#57B894"/>
<path d="M1246.71 748.289C1245.61 748.343 1244.52 748.179 1243.48 747.807C1242.45 747.436 1241.5 746.864 1240.69 746.124C1239.88 745.385 1239.22 744.492 1238.76 743.498C1238.29 742.503 1238.03 741.427 1237.98 740.33C1237.91 739.023 1238.16 737.719 1238.7 736.526C1239.2 735.409 1239.94 734.416 1240.86 733.616C1241.79 732.815 1242.88 732.228 1244.05 731.894L1244.01 735.341L1245.9 731.597C1247 731.543 1248.09 731.707 1249.12 732.078C1250.16 732.45 1251.11 733.022 1251.92 733.761C1252.73 734.501 1253.39 735.394 1253.85 736.388C1254.32 737.382 1254.58 738.459 1254.63 739.556C1254.68 740.52 1254.56 741.485 1254.27 742.407C1253.77 744.047 1252.77 745.492 1251.42 746.544C1250.07 747.597 1248.42 748.206 1246.71 748.289Z" fill="#57B894"/>
<path d="M1267 734.794C1265.72 734.841 1264.45 734.591 1263.28 734.064C1262.11 733.537 1261.08 732.747 1260.26 731.755C1259.45 730.764 1258.87 729.597 1258.58 728.347C1258.29 727.097 1258.3 725.797 1258.59 724.548C1258.89 723.299 1259.47 722.135 1260.28 721.147C1261.1 720.159 1262.14 719.373 1263.31 718.851C1264.48 718.33 1265.76 718.085 1267.04 718.138C1268.32 718.191 1269.57 718.539 1270.7 719.155L1269.22 723.203L1272.26 720.286C1273.49 721.397 1274.35 722.848 1274.75 724.454C1275.15 726.06 1275.07 727.749 1274.5 729.305C1273.94 730.862 1272.92 732.215 1271.59 733.192C1270.25 734.17 1268.66 734.727 1267 734.794Z" fill="#57B894"/>
<path opacity="0.1" d="M1264.62 710.184C1262.7 710.399 1260.82 711 1258.89 711.119C1256.95 711.238 1254.83 710.774 1253.61 709.267C1252.95 708.458 1252.62 707.434 1252.06 706.553C1251.54 705.73 1250.81 705.05 1249.96 704.571C1249.45 705.625 1249.17 706.774 1249.14 707.944C1249.1 709.114 1249.32 710.278 1249.76 711.36C1250.21 712.442 1250.87 713.419 1251.72 714.226C1252.57 715.034 1253.57 715.653 1254.68 716.045C1255.78 716.437 1256.95 716.592 1258.12 716.5C1259.28 716.409 1260.42 716.073 1261.45 715.514C1262.47 714.955 1263.37 714.185 1264.08 713.256C1264.79 712.326 1265.3 711.257 1265.57 710.119C1265.26 710.131 1264.94 710.154 1264.62 710.184Z" fill="black"/>
<path opacity="0.1" d="M1267 734.794C1265.57 734.856 1264.14 734.547 1262.86 733.897C1261.57 733.246 1260.48 732.275 1259.68 731.078C1258.88 729.882 1258.41 728.499 1258.3 727.065C1258.19 725.63 1258.45 724.191 1259.06 722.888C1259.73 723.334 1260.3 723.906 1260.74 724.572C1261.34 725.471 1261.7 726.507 1262.4 727.335C1263.7 728.864 1265.92 729.364 1267.93 729.269C1269.94 729.174 1271.9 728.608 1273.88 728.424C1274.16 728.424 1274.45 728.376 1274.73 728.37C1274.31 730.136 1273.34 731.718 1271.94 732.877C1270.55 734.037 1268.82 734.709 1267 734.794Z" fill="black"/>
<path opacity="0.1" d="M1246.71 748.289C1245.61 748.342 1244.52 748.179 1243.48 747.807C1242.45 747.436 1241.5 746.864 1240.69 746.124C1239.88 745.385 1239.22 744.492 1238.76 743.498C1238.29 742.503 1238.03 741.427 1237.98 740.33C1237.91 739.023 1238.16 737.719 1238.7 736.526C1239.39 736.977 1240 737.552 1240.48 738.222C1241.13 739.139 1241.54 740.193 1242.27 741.038C1243.68 742.61 1246.05 743.163 1248.18 743.11C1250.32 743.056 1252.24 742.556 1254.29 742.401C1253.79 744.046 1252.79 745.495 1251.43 746.549C1250.08 747.603 1248.43 748.211 1246.71 748.289Z" fill="black"/>
<path opacity="0.1" d="M1250.87 764.511C1250.43 765.511 1249.79 766.413 1248.99 767.165C1248.19 767.917 1247.26 768.506 1246.24 768.896C1245.21 769.287 1244.12 769.472 1243.03 769.441C1241.93 769.41 1240.86 769.164 1239.86 768.716C1238.86 768.269 1237.96 767.629 1237.2 766.833C1236.45 766.037 1235.86 765.1 1235.47 764.077C1235.08 763.053 1234.9 761.963 1234.93 760.868C1234.96 759.773 1235.21 758.694 1235.65 757.695C1236.34 758.147 1236.96 758.696 1237.49 759.326C1238.28 760.296 1238.8 761.391 1239.72 762.302C1241.42 763.981 1244.18 764.683 1246.64 764.737C1248.05 764.743 1249.47 764.667 1250.87 764.511Z" fill="black"/>
<path d="M1230 776.827C1230 776.827 1236.59 776.625 1238.58 775.208C1240.57 773.791 1248.7 772.101 1249.21 774.375C1249.73 776.649 1259.11 785.685 1251.68 785.721C1244.24 785.757 1234.39 784.56 1232.4 783.34C1230.42 782.12 1230 776.827 1230 776.827Z" fill="#656380"/>
<path opacity="0.2" d="M1251.81 784.93C1244.36 784.989 1234.52 783.769 1232.53 782.548C1231.02 781.632 1230.42 778.328 1230.22 776.804H1230C1230 776.804 1230.42 782.12 1232.38 783.352C1234.34 784.584 1244.21 785.781 1251.65 785.733C1253.8 785.733 1254.54 784.953 1254.5 783.816C1254.22 784.489 1253.41 784.918 1251.81 784.93Z" fill="black"/>
<circle cx="1223" cy="414" r="17" fill="#13F1FC" fill-opacity="0.1"/>
<g filter="url(#filter0_d_5948_36)">
<circle cx="1222.5" cy="414.5" r="8.5" fill="#13F1FC"/>
</g>
<circle cx="204" cy="1102" r="17" fill="#13F1FC" fill-opacity="0.1"/>
<g filter="url(#filter1_d_5948_36)">
<circle cx="204.5" cy="1102.5" r="8.5" fill="#13F1FC"/>
</g>
<path fill-rule="evenodd" clip-rule="evenodd" d="M720.818 1591H714.896V1613.7H720.818V1591ZM717.857 1629L728.714 1613.7H707L717.857 1629Z" fill="#F2F3F3"/>
<path d="M94.9171 1576.9C96.4642 1574.3 94.7108 1571.11 92.71 1568.79C90.7091 1566.47 88.2647 1564.07 88.3163 1561.1C88.3936 1556.86 93.3185 1554.35 97.2532 1552.1C100.174 1550.43 102.867 1548.45 105.277 1546.19C106.289 1545.33 107.123 1544.31 107.742 1543.17C108.557 1541.51 108.536 1539.63 108.485 1537.8C108.313 1531.74 107.985 1525.69 107.5 1519.64" stroke="#3F3D56" stroke-width="4" stroke-miterlimit="10"/>
<path d="M114.983 1519.31C114.928 1518.2 114.568 1517.12 113.937 1516.17C113.306 1515.22 112.424 1514.44 111.373 1513.88L109.753 1516.82L109.805 1513.27C108.337 1512.87 106.77 1512.92 105.331 1513.39C103.891 1513.86 102.652 1514.74 101.794 1515.9C100.936 1517.06 100.502 1518.44 100.555 1519.84C100.608 1521.24 101.146 1522.58 102.09 1523.68C103.034 1524.79 104.336 1525.58 105.808 1525.97C107.28 1526.35 108.847 1526.29 110.281 1525.8C111.715 1525.31 112.943 1524.42 113.789 1523.26C114.634 1522.09 115.052 1520.71 114.983 1519.31Z" fill="#57B894"/>
<path d="M102.09 1564.14C101.331 1565.49 100.089 1566.55 98.5728 1567.16C97.0564 1567.77 95.3576 1567.88 93.761 1567.48C92.1645 1567.08 90.7673 1566.19 89.8036 1564.96C88.8399 1563.73 88.3682 1562.23 88.4677 1560.72C88.5672 1559.2 89.2317 1557.77 90.3499 1556.65C91.4681 1555.53 92.972 1554.8 94.6097 1554.58C96.2473 1554.35 97.9191 1554.65 99.3448 1555.42C100.771 1556.19 101.864 1557.39 102.441 1558.81L97.9184 1562.17L102.895 1561.12C102.896 1562.17 102.62 1563.21 102.09 1564.14V1564.14Z" fill="#57B894"/>
<path d="M98.4804 1551.28C97.5304 1551.32 96.5806 1551.19 95.6856 1550.9C94.7905 1550.61 93.9678 1550.15 93.2649 1549.57C92.5619 1548.98 91.9924 1548.27 91.5892 1547.48C91.186 1546.69 90.957 1545.84 90.9153 1544.97C90.8582 1543.94 91.0721 1542.9 91.5393 1541.96C91.9726 1541.07 92.6128 1540.28 93.4146 1539.65C94.2165 1539.01 95.1606 1538.55 96.1805 1538.28L96.1444 1541.02L97.7791 1538.05C98.7291 1538.01 99.6789 1538.14 100.574 1538.43C101.469 1538.72 102.292 1539.18 102.995 1539.76C103.698 1540.35 104.267 1541.06 104.67 1541.85C105.074 1542.63 105.303 1543.49 105.344 1544.36C105.387 1545.12 105.282 1545.89 105.035 1546.62C104.599 1547.92 103.736 1549.06 102.563 1549.9C101.39 1550.73 99.9644 1551.22 98.4804 1551.28V1551.28Z" fill="#57B894"/>
<path d="M116.071 1540.58C114.96 1540.62 113.854 1540.42 112.841 1540C111.827 1539.59 110.933 1538.96 110.227 1538.17C109.521 1537.39 109.023 1536.46 108.772 1535.47C108.521 1534.48 108.524 1533.45 108.78 1532.46C109.035 1531.47 109.537 1530.55 110.247 1529.76C110.956 1528.98 111.854 1528.36 112.869 1527.94C113.885 1527.53 114.991 1527.34 116.102 1527.38C117.213 1527.42 118.298 1527.7 119.273 1528.19L117.994 1531.39L120.624 1529.08C121.687 1529.96 122.44 1531.11 122.786 1532.39C123.133 1533.66 123.057 1535 122.568 1536.23C122.08 1537.47 121.201 1538.54 120.044 1539.31C118.887 1540.09 117.503 1540.53 116.071 1540.58V1540.58Z" fill="#57B894"/>
<path opacity="0.1" d="M114.008 1521.07C112.342 1521.24 110.713 1521.72 109.037 1521.81C107.361 1521.91 105.52 1521.54 104.463 1520.35C103.89 1519.7 103.601 1518.89 103.122 1518.19C102.664 1517.54 102.039 1517 101.301 1516.62C100.861 1517.46 100.618 1518.37 100.587 1519.3C100.557 1520.22 100.741 1521.15 101.126 1522.01C101.512 1522.86 102.09 1523.64 102.824 1524.28C103.558 1524.92 104.431 1525.41 105.387 1525.72C106.342 1526.03 107.358 1526.15 108.369 1526.08C109.379 1526.01 110.362 1525.74 111.253 1525.3C112.143 1524.86 112.922 1524.25 113.538 1523.51C114.154 1522.77 114.593 1521.92 114.828 1521.02C114.555 1521.03 114.281 1521.05 114.008 1521.07Z" fill="black"/>
<path opacity="0.1" d="M116.071 1540.58C114.825 1540.63 113.587 1540.39 112.475 1539.87C111.364 1539.36 110.416 1538.59 109.724 1537.64C109.032 1536.69 108.619 1535.59 108.525 1534.46C108.431 1533.32 108.658 1532.18 109.186 1531.14C109.763 1531.5 110.259 1531.95 110.646 1532.48C111.161 1533.19 111.471 1534.01 112.079 1534.67C113.203 1535.88 115.132 1536.28 116.875 1536.2C118.618 1536.13 120.31 1535.68 122.032 1535.53C122.274 1535.53 122.522 1535.5 122.764 1535.49C122.406 1536.89 121.558 1538.14 120.35 1539.06C119.142 1539.98 117.64 1540.52 116.071 1540.58V1540.58Z" fill="black"/>
<path opacity="0.1" d="M98.4804 1551.28C97.5304 1551.32 96.5806 1551.19 95.6855 1550.9C94.7905 1550.61 93.9678 1550.15 93.2649 1549.57C92.5619 1548.98 91.9924 1548.27 91.5892 1547.48C91.186 1546.69 90.957 1545.84 90.9153 1544.97C90.8582 1543.94 91.0721 1542.9 91.5393 1541.96C92.1409 1542.31 92.6653 1542.77 93.0864 1543.3C93.6485 1544.03 93.9991 1544.86 94.6334 1545.53C95.8556 1546.78 97.908 1547.22 99.7594 1547.18C101.611 1547.13 103.276 1546.74 105.055 1546.61C104.62 1547.92 103.754 1549.07 102.577 1549.9C101.399 1550.74 99.9687 1551.22 98.4804 1551.28V1551.28Z" fill="black"/>
<path opacity="0.1" d="M102.09 1564.14C101.703 1564.93 101.148 1565.65 100.458 1566.25C99.7688 1566.84 98.9575 1567.31 98.0709 1567.62C97.1843 1567.93 96.2397 1568.07 95.2911 1568.05C94.3426 1568.03 93.4085 1567.83 92.5424 1567.48C91.6762 1567.12 90.8949 1566.61 90.2431 1565.98C89.5912 1565.35 89.0816 1564.61 88.7433 1563.8C88.4049 1562.99 88.2446 1562.12 88.2713 1561.25C88.298 1560.39 88.5113 1559.53 88.899 1558.74C89.4942 1559.1 90.0292 1559.53 90.4874 1560.03C91.1732 1560.8 91.627 1561.67 92.4212 1562.39C93.9012 1563.72 96.2888 1564.28 98.4186 1564.32C99.6453 1564.33 100.871 1564.27 102.09 1564.14V1564.14Z" fill="black"/>
<path d="M84 1573.91C84 1573.91 89.7138 1573.75 91.4362 1572.62C93.1586 1571.5 100.203 1570.16 100.652 1571.96C101.1 1573.76 109.233 1580.93 102.787 1580.96C96.3404 1580.98 87.8006 1580.04 86.0834 1579.07C84.3661 1578.1 84 1573.91 84 1573.91Z" fill="#656380"/>
<path opacity="0.2" d="M102.9 1580.33C96.4487 1580.38 87.9141 1579.41 86.1968 1578.44C84.887 1577.71 84.3661 1575.09 84.1908 1573.89H84C84 1573.89 84.361 1578.1 86.0628 1579.08C87.7645 1580.05 96.3146 1581 102.766 1580.97C104.628 1580.97 105.267 1580.35 105.236 1579.45C104.994 1579.98 104.287 1580.32 102.9 1580.33Z" fill="black"/>
<defs>
<filter id="filter0_d_5948_36" x="1204" y="400" width="37" height="37" filterUnits="userSpaceOnUse" color-interpolation-filters="sRGB">
<feFlood flood-opacity="0" result="BackgroundImageFix"/>
<feColorMatrix in="SourceAlpha" type="matrix" values="0 0 0 0 0 0 0 0 0 0 0 0 0 0 0 0 0 0 127 0" result="hardAlpha"/>
<feOffset dy="4"/>
<feGaussianBlur stdDeviation="5"/>
<feColorMatrix type="matrix" values="0 0 0 0 0.0745098 0 0 0 0 0.945098 0 0 0 0 0.988235 0 0 0 0.7 0"/>
<feBlend mode="normal" in2="BackgroundImageFix" result="effect1_dropShadow_5948_36"/>
<feBlend mode="normal" in="SourceGraphic" in2="effect1_dropShadow_5948_36" result="shape"/>
</filter>
<filter id="filter1_d_5948_36" x="186" y="1088" width="37" height="37" filterUnits="userSpaceOnUse" color-interpolation-filters="sRGB">
<feFlood flood-opacity="0" result="BackgroundImageFix"/>
<feColorMatrix in="SourceAlpha" type="matrix" values="0 0 0 0 0 0 0 0 0 0 0 0 0 0 0 0 0 0 127 0" result="hardAlpha"/>
<feOffset dy="4"/>
<feGaussianBlur stdDeviation="5"/>
<feColorMatrix type="matrix" values="0 0 0 0 0.0745098 0 0 0 0 0.945098 0 0 0 0 0.988235 0 0 0 0.7 0"/>
<feBlend mode="normal" in2="BackgroundImageFix" result="effect1_dropShadow_5948_36"/>
<feBlend mode="normal" in="SourceGraphic" in2="effect1_dropShadow_5948_36" result="shape"/>
</filter>
<linearGradient id="paint0_linear_5948_36" x1="586.805" y1="1" x2="586.805" y2="1707.5" gradientUnits="userSpaceOnUse">
<stop stop-color="white"/>
<stop offset="0.541436" stop-color="#E6E8EC" stop-opacity="0.1"/>
<stop offset="1" stop-color="white"/>
</linearGradient>
<linearGradient id="paint1_linear_5948_36" x1="586.805" y1="1" x2="586.805" y2="1707.5" gradientUnits="userSpaceOnUse">
<stop stop-color="white"/>
<stop offset="0.209945" stop-color="#E6E8EC"/>
<stop offset="0.834254" stop-color="#E6E8EC"/>
<stop offset="1" stop-color="white"/>
</linearGradient>
</defs>
</svg>
